<mxfile host="app.diagrams.net" modified="2020-12-16T10:03:46.671Z" agent="5.0 (Windows)" etag="8n6KwId5TxUFxnvK0F14" version="14.0.1" type="github">
  <diagram name="Page-1" id="e7e014a7-5840-1c2e-5031-d8a46d1fe8dd">
    <mxGraphModel dx="1422" dy="728" grid="1" gridSize="10" guides="1" tooltips="1" connect="1" arrows="1" fold="1" page="1" pageScale="1" pageWidth="1169" pageHeight="826" background="#ffffff" math="0" shadow="0">
      <root>
        <mxCell id="0" />
        <mxCell id="1" parent="0" />
        <mxCell id="Ti_cdP-LwR2GLxK3Q5Qu-41" value="" style="rounded=0;whiteSpace=wrap;html=1;" parent="1" vertex="1">
          <mxGeometry x="329" y="48" width="560" height="730" as="geometry" />
        </mxCell>
        <mxCell id="Ti_cdP-LwR2GLxK3Q5Qu-43" value="&lt;font color=&quot;#000000&quot;&gt;customer&lt;/font&gt;" style="shape=umlActor;verticalLabelPosition=bottom;verticalAlign=top;html=1;outlineConnect=0;fillColor=#6a00ff;strokeColor=#3700CC;fontColor=#ffffff;" parent="1" vertex="1">
          <mxGeometry x="244" y="443" width="30" height="60" as="geometry" />
        </mxCell>
        <mxCell id="Ti_cdP-LwR2GLxK3Q5Qu-42" value="&lt;font color=&quot;#000000&quot;&gt;seller&lt;br&gt;&lt;/font&gt;" style="shape=umlActor;verticalLabelPosition=bottom;verticalAlign=top;html=1;outlineConnect=0;fillColor=#d80073;strokeColor=#A50040;fontColor=#ffffff;" parent="1" vertex="1">
          <mxGeometry x="244" y="208" width="30" height="60" as="geometry" />
        </mxCell>
        <mxCell id="rXxGUh9YkXs_mze31AUG-5" value="&amp;nbsp; &amp;nbsp;admin" style="shape=umlActor;verticalLabelPosition=bottom;verticalAlign=top;html=1;outlineConnect=0;strokeColor=#d6b656;fillColor=#FFCE9F;" parent="1" vertex="1">
          <mxGeometry x="930" y="178" width="30" height="60" as="geometry" />
        </mxCell>
        <mxCell id="Jm9gUiOZweeL1IYtcXkK-2" value="log in" style="ellipse;whiteSpace=wrap;html=1;fillColor=#f8cecc;strokeColor=#b85450;gradientColor=#ea6b66;fontStyle=1" parent="1" vertex="1">
          <mxGeometry x="369.63" y="88" width="100" height="60" as="geometry" />
        </mxCell>
        <mxCell id="oFaBCXIpXnut_KhmdDa9-9" style="edgeStyle=orthogonalEdgeStyle;rounded=0;orthogonalLoop=1;jettySize=auto;html=1;exitX=0.5;exitY=1;exitDx=0;exitDy=0;" parent="1" edge="1">
          <mxGeometry relative="1" as="geometry">
            <mxPoint x="647.3800000000001" y="645" as="sourcePoint" />
            <mxPoint x="647.3800000000001" y="645" as="targetPoint" />
          </mxGeometry>
        </mxCell>
        <mxCell id="oFaBCXIpXnut_KhmdDa9-20" value="sign out" style="ellipse;whiteSpace=wrap;html=1;fillColor=#76608a;strokeColor=#432D57;fontStyle=1;fontColor=#ffffff;" parent="1" vertex="1">
          <mxGeometry x="420" y="648" width="98.38" height="60" as="geometry" />
        </mxCell>
        <mxCell id="oFaBCXIpXnut_KhmdDa9-25" value="ثبت نام" style="ellipse;whiteSpace=wrap;html=1;fillColor=#f8cecc;strokeColor=#b85450;gradientColor=#ea6b66;fontStyle=1" parent="1" vertex="1">
          <mxGeometry x="369.63" y="165" width="95" height="57" as="geometry" />
        </mxCell>
        <mxCell id="oFaBCXIpXnut_KhmdDa9-83" value="" style="endArrow=none;html=1;edgeStyle=orthogonalEdgeStyle;entryX=1;entryY=0.5;entryDx=0;entryDy=0;exitX=0;exitY=0.3333333333333333;exitDx=0;exitDy=0;exitPerimeter=0;" parent="1" source="rXxGUh9YkXs_mze31AUG-5" target="oFaBCXIpXnut_KhmdDa9-54" edge="1">
          <mxGeometry relative="1" as="geometry">
            <mxPoint x="656.5" y="269.5" as="sourcePoint" />
            <mxPoint x="809" y="248" as="targetPoint" />
            <Array as="points">
              <mxPoint x="899" y="197" />
              <mxPoint x="869" y="197" />
            </Array>
          </mxGeometry>
        </mxCell>
        <mxCell id="oFaBCXIpXnut_KhmdDa9-84" value="*" style="edgeLabel;resizable=0;html=1;align=left;verticalAlign=bottom;" parent="oFaBCXIpXnut_KhmdDa9-83" connectable="0" vertex="1">
          <mxGeometry x="-1" relative="1" as="geometry" />
        </mxCell>
        <mxCell id="oFaBCXIpXnut_KhmdDa9-85" value="*" style="edgeLabel;resizable=0;html=1;align=right;verticalAlign=bottom;" parent="oFaBCXIpXnut_KhmdDa9-83" connectable="0" vertex="1">
          <mxGeometry x="1" relative="1" as="geometry" />
        </mxCell>
        <mxCell id="oFaBCXIpXnut_KhmdDa9-92" value="" style="endArrow=none;html=1;edgeStyle=orthogonalEdgeStyle;entryX=0;entryY=0.3333333333333333;entryDx=0;entryDy=0;entryPerimeter=0;" parent="1" source="Jm9gUiOZweeL1IYtcXkK-2" target="rXxGUh9YkXs_mze31AUG-5" edge="1">
          <mxGeometry relative="1" as="geometry">
            <mxPoint x="689" y="338.75" as="sourcePoint" />
            <mxPoint x="919" y="218" as="targetPoint" />
            <Array as="points">
              <mxPoint x="930" y="118" />
            </Array>
          </mxGeometry>
        </mxCell>
        <mxCell id="oFaBCXIpXnut_KhmdDa9-93" value="*" style="edgeLabel;resizable=0;html=1;align=left;verticalAlign=bottom;" parent="oFaBCXIpXnut_KhmdDa9-92" connectable="0" vertex="1">
          <mxGeometry x="-1" relative="1" as="geometry" />
        </mxCell>
        <mxCell id="oFaBCXIpXnut_KhmdDa9-94" value="*" style="edgeLabel;resizable=0;html=1;align=right;verticalAlign=bottom;" parent="oFaBCXIpXnut_KhmdDa9-92" connectable="0" vertex="1">
          <mxGeometry x="1" relative="1" as="geometry" />
        </mxCell>
        <mxCell id="oFaBCXIpXnut_KhmdDa9-95" value="" style="endArrow=none;html=1;edgeStyle=orthogonalEdgeStyle;entryX=0;entryY=0.5;entryDx=0;entryDy=0;exitX=1;exitY=0.3333333333333333;exitDx=0;exitDy=0;exitPerimeter=0;" parent="1" source="Ti_cdP-LwR2GLxK3Q5Qu-42" target="Jm9gUiOZweeL1IYtcXkK-2" edge="1">
          <mxGeometry relative="1" as="geometry">
            <mxPoint x="294" y="238" as="sourcePoint" />
            <mxPoint x="364.63000000000056" y="118" as="targetPoint" />
            <Array as="points">
              <mxPoint x="274" y="118" />
            </Array>
          </mxGeometry>
        </mxCell>
        <mxCell id="oFaBCXIpXnut_KhmdDa9-96" value="*" style="edgeLabel;resizable=0;html=1;align=left;verticalAlign=bottom;" parent="oFaBCXIpXnut_KhmdDa9-95" connectable="0" vertex="1">
          <mxGeometry x="-1" relative="1" as="geometry" />
        </mxCell>
        <mxCell id="oFaBCXIpXnut_KhmdDa9-97" value="*" style="edgeLabel;resizable=0;html=1;align=right;verticalAlign=bottom;" parent="oFaBCXIpXnut_KhmdDa9-95" connectable="0" vertex="1">
          <mxGeometry x="1" relative="1" as="geometry" />
        </mxCell>
        <mxCell id="oFaBCXIpXnut_KhmdDa9-98" value="" style="endArrow=none;html=1;edgeStyle=orthogonalEdgeStyle;entryX=0;entryY=0;entryDx=0;entryDy=0;exitX=0;exitY=0.3333333333333333;exitDx=0;exitDy=0;exitPerimeter=0;" parent="1" source="Ti_cdP-LwR2GLxK3Q5Qu-43" target="Jm9gUiOZweeL1IYtcXkK-2" edge="1">
          <mxGeometry relative="1" as="geometry">
            <mxPoint x="229" y="458" as="sourcePoint" />
            <mxPoint x="641.5" y="288" as="targetPoint" />
            <Array as="points">
              <mxPoint x="209" y="463" />
              <mxPoint x="209" y="97" />
            </Array>
          </mxGeometry>
        </mxCell>
        <mxCell id="oFaBCXIpXnut_KhmdDa9-99" value="*" style="edgeLabel;resizable=0;html=1;align=left;verticalAlign=bottom;" parent="oFaBCXIpXnut_KhmdDa9-98" connectable="0" vertex="1">
          <mxGeometry x="-1" relative="1" as="geometry" />
        </mxCell>
        <mxCell id="oFaBCXIpXnut_KhmdDa9-100" value="*" style="edgeLabel;resizable=0;html=1;align=right;verticalAlign=bottom;" parent="oFaBCXIpXnut_KhmdDa9-98" connectable="0" vertex="1">
          <mxGeometry x="1" relative="1" as="geometry" />
        </mxCell>
        <mxCell id="oFaBCXIpXnut_KhmdDa9-107" value="" style="endArrow=none;html=1;edgeStyle=orthogonalEdgeStyle;exitX=1;exitY=1;exitDx=0;exitDy=0;exitPerimeter=0;entryX=0;entryY=0.5;entryDx=0;entryDy=0;" parent="1" source="Ti_cdP-LwR2GLxK3Q5Qu-43" target="Ropvw_bmy95mcoHRvxeS-3" edge="1">
          <mxGeometry relative="1" as="geometry">
            <mxPoint x="321.5" y="514.75" as="sourcePoint" />
            <mxPoint x="445" y="514" as="targetPoint" />
            <Array as="points">
              <mxPoint x="274" y="510" />
            </Array>
          </mxGeometry>
        </mxCell>
        <mxCell id="oFaBCXIpXnut_KhmdDa9-108" value="*" style="edgeLabel;resizable=0;html=1;align=left;verticalAlign=bottom;" parent="oFaBCXIpXnut_KhmdDa9-107" connectable="0" vertex="1">
          <mxGeometry x="-1" relative="1" as="geometry" />
        </mxCell>
        <mxCell id="oFaBCXIpXnut_KhmdDa9-109" value="*" style="edgeLabel;resizable=0;html=1;align=right;verticalAlign=bottom;" parent="oFaBCXIpXnut_KhmdDa9-107" connectable="0" vertex="1">
          <mxGeometry x="1" relative="1" as="geometry" />
        </mxCell>
        <mxCell id="oFaBCXIpXnut_KhmdDa9-113" value="" style="endArrow=none;html=1;edgeStyle=orthogonalEdgeStyle;entryX=0;entryY=0.5;entryDx=0;entryDy=0;exitX=1;exitY=1;exitDx=0;exitDy=0;exitPerimeter=0;" parent="1" source="Ti_cdP-LwR2GLxK3Q5Qu-42" target="Ropvw_bmy95mcoHRvxeS-1" edge="1">
          <mxGeometry relative="1" as="geometry">
            <mxPoint x="334" y="298" as="sourcePoint" />
            <mxPoint x="369.6300000000001" y="268" as="targetPoint" />
            <Array as="points">
              <mxPoint x="371" y="268" />
            </Array>
          </mxGeometry>
        </mxCell>
        <mxCell id="oFaBCXIpXnut_KhmdDa9-114" value="*" style="edgeLabel;resizable=0;html=1;align=left;verticalAlign=bottom;" parent="oFaBCXIpXnut_KhmdDa9-113" connectable="0" vertex="1">
          <mxGeometry x="-1" relative="1" as="geometry" />
        </mxCell>
        <mxCell id="oFaBCXIpXnut_KhmdDa9-115" value="*" style="edgeLabel;resizable=0;html=1;align=right;verticalAlign=bottom;" parent="oFaBCXIpXnut_KhmdDa9-113" connectable="0" vertex="1">
          <mxGeometry x="1" relative="1" as="geometry" />
        </mxCell>
        <mxCell id="oFaBCXIpXnut_KhmdDa9-116" value="" style="endArrow=none;html=1;edgeStyle=orthogonalEdgeStyle;entryX=0;entryY=0.5;entryDx=0;entryDy=0;exitX=1;exitY=1;exitDx=0;exitDy=0;exitPerimeter=0;" parent="1" source="Ti_cdP-LwR2GLxK3Q5Qu-43" target="Ropvw_bmy95mcoHRvxeS-6" edge="1">
          <mxGeometry relative="1" as="geometry">
            <mxPoint x="274" y="494" as="sourcePoint" />
            <mxPoint x="512.5000000000009" y="635.5" as="targetPoint" />
          </mxGeometry>
        </mxCell>
        <mxCell id="oFaBCXIpXnut_KhmdDa9-117" value="*" style="edgeLabel;resizable=0;html=1;align=left;verticalAlign=bottom;" parent="oFaBCXIpXnut_KhmdDa9-116" connectable="0" vertex="1">
          <mxGeometry x="-1" relative="1" as="geometry" />
        </mxCell>
        <mxCell id="oFaBCXIpXnut_KhmdDa9-118" value="*" style="edgeLabel;resizable=0;html=1;align=right;verticalAlign=bottom;" parent="oFaBCXIpXnut_KhmdDa9-116" connectable="0" vertex="1">
          <mxGeometry x="1" relative="1" as="geometry" />
        </mxCell>
        <mxCell id="oFaBCXIpXnut_KhmdDa9-119" value="" style="endArrow=none;html=1;edgeStyle=orthogonalEdgeStyle;exitX=1;exitY=1;exitDx=0;exitDy=0;exitPerimeter=0;entryX=0;entryY=0.5;entryDx=0;entryDy=0;" parent="1" source="Ti_cdP-LwR2GLxK3Q5Qu-43" target="oFaBCXIpXnut_KhmdDa9-16" edge="1">
          <mxGeometry relative="1" as="geometry">
            <mxPoint x="184" y="644" as="sourcePoint" />
            <mxPoint x="512.4999999999659" y="558" as="targetPoint" />
            <Array as="points">
              <mxPoint x="274" y="558" />
            </Array>
          </mxGeometry>
        </mxCell>
        <mxCell id="oFaBCXIpXnut_KhmdDa9-120" value="*" style="edgeLabel;resizable=0;html=1;align=left;verticalAlign=bottom;" parent="oFaBCXIpXnut_KhmdDa9-119" connectable="0" vertex="1">
          <mxGeometry x="-1" relative="1" as="geometry" />
        </mxCell>
        <mxCell id="oFaBCXIpXnut_KhmdDa9-121" value="*" style="edgeLabel;resizable=0;html=1;align=right;verticalAlign=bottom;" parent="oFaBCXIpXnut_KhmdDa9-119" connectable="0" vertex="1">
          <mxGeometry x="1" relative="1" as="geometry" />
        </mxCell>
        <mxCell id="oFaBCXIpXnut_KhmdDa9-125" value="" style="endArrow=none;html=1;edgeStyle=orthogonalEdgeStyle;entryX=1;entryY=1;entryDx=0;entryDy=0;entryPerimeter=0;exitX=0;exitY=0.5;exitDx=0;exitDy=0;" parent="1" source="oFaBCXIpXnut_KhmdDa9-20" target="Ti_cdP-LwR2GLxK3Q5Qu-43" edge="1">
          <mxGeometry relative="1" as="geometry">
            <mxPoint x="370" y="738" as="sourcePoint" />
            <mxPoint x="474" y="694" as="targetPoint" />
            <Array as="points">
              <mxPoint x="274" y="678" />
            </Array>
          </mxGeometry>
        </mxCell>
        <mxCell id="oFaBCXIpXnut_KhmdDa9-126" value="*" style="edgeLabel;resizable=0;html=1;align=left;verticalAlign=bottom;" parent="oFaBCXIpXnut_KhmdDa9-125" connectable="0" vertex="1">
          <mxGeometry x="-1" relative="1" as="geometry" />
        </mxCell>
        <mxCell id="oFaBCXIpXnut_KhmdDa9-127" value="*" style="edgeLabel;resizable=0;html=1;align=right;verticalAlign=bottom;" parent="oFaBCXIpXnut_KhmdDa9-125" connectable="0" vertex="1">
          <mxGeometry x="1" relative="1" as="geometry" />
        </mxCell>
        <mxCell id="0yDzKwt1mDLhN0Ld_7wp-2" value="include" style="endArrow=block;dashed=1;endFill=0;endSize=12;html=1;entryX=1;entryY=0.5;entryDx=0;entryDy=0;exitX=0;exitY=0.5;exitDx=0;exitDy=0;" parent="1" source="oFaBCXIpXnut_KhmdDa9-54" target="oFaBCXIpXnut_KhmdDa9-25" edge="1">
          <mxGeometry width="160" relative="1" as="geometry">
            <mxPoint x="739" y="178" as="sourcePoint" />
            <mxPoint x="759" y="178" as="targetPoint" />
          </mxGeometry>
        </mxCell>
        <mxCell id="LZOqlYVMBqQ8iP9V0Yqu-1" value="include" style="endArrow=block;dashed=1;endFill=0;endSize=12;html=1;entryX=1;entryY=0.5;entryDx=0;entryDy=0;exitX=0;exitY=1;exitDx=0;exitDy=0;" parent="1" source="oFaBCXIpXnut_KhmdDa9-54" target="Ropvw_bmy95mcoHRvxeS-2" edge="1">
          <mxGeometry width="160" relative="1" as="geometry">
            <mxPoint x="779" y="259.4999999999999" as="sourcePoint" />
            <mxPoint x="464.6300000000001" y="338" as="targetPoint" />
          </mxGeometry>
        </mxCell>
        <mxCell id="oFaBCXIpXnut_KhmdDa9-16" value="نظرسنجی" style="ellipse;whiteSpace=wrap;html=1;fillColor=#76608a;strokeColor=#432D57;fontStyle=1;fontColor=#ffffff;" parent="1" vertex="1">
          <mxGeometry x="517.5" y="528" width="95" height="60" as="geometry" />
        </mxCell>
        <mxCell id="oFaBCXIpXnut_KhmdDa9-54" value="مدیریت رستوران ها" style="ellipse;whiteSpace=wrap;html=1;fillColor=#fad7ac;strokeColor=#b46504;fontStyle=1" parent="1" vertex="1">
          <mxGeometry x="699" y="165" width="110" height="63" as="geometry" />
        </mxCell>
        <mxCell id="LZOqlYVMBqQ8iP9V0Yqu-4" value="" style="endArrow=none;html=1;edgeStyle=orthogonalEdgeStyle;entryX=0.008;entryY=0.649;entryDx=0;entryDy=0;entryPerimeter=0;" parent="1" target="Ropvw_bmy95mcoHRvxeS-4" edge="1">
          <mxGeometry relative="1" as="geometry">
            <mxPoint x="274" y="463" as="sourcePoint" />
            <mxPoint x="544" y="406.5" as="targetPoint" />
            <Array as="points">
              <mxPoint x="274" y="402" />
            </Array>
          </mxGeometry>
        </mxCell>
        <mxCell id="LZOqlYVMBqQ8iP9V0Yqu-5" value="*" style="edgeLabel;resizable=0;html=1;align=left;verticalAlign=bottom;" parent="LZOqlYVMBqQ8iP9V0Yqu-4" connectable="0" vertex="1">
          <mxGeometry x="-1" relative="1" as="geometry" />
        </mxCell>
        <mxCell id="LZOqlYVMBqQ8iP9V0Yqu-6" value="*" style="edgeLabel;resizable=0;html=1;align=right;verticalAlign=bottom;" parent="LZOqlYVMBqQ8iP9V0Yqu-4" connectable="0" vertex="1">
          <mxGeometry x="1" relative="1" as="geometry" />
        </mxCell>
        <mxCell id="LZOqlYVMBqQ8iP9V0Yqu-7" value="" style="endArrow=none;html=1;edgeStyle=orthogonalEdgeStyle;exitX=0.008;exitY=0.353;exitDx=0;exitDy=0;exitPerimeter=0;" parent="1" source="Ropvw_bmy95mcoHRvxeS-4" edge="1">
          <mxGeometry relative="1" as="geometry">
            <mxPoint x="557.7931126067092" y="386.41930112740124" as="sourcePoint" />
            <mxPoint x="274" y="271" as="targetPoint" />
            <Array as="points">
              <mxPoint x="274" y="385" />
            </Array>
          </mxGeometry>
        </mxCell>
        <mxCell id="LZOqlYVMBqQ8iP9V0Yqu-8" value="*" style="edgeLabel;resizable=0;html=1;align=left;verticalAlign=bottom;" parent="LZOqlYVMBqQ8iP9V0Yqu-7" connectable="0" vertex="1">
          <mxGeometry x="-1" relative="1" as="geometry" />
        </mxCell>
        <mxCell id="LZOqlYVMBqQ8iP9V0Yqu-9" value="*" style="edgeLabel;resizable=0;html=1;align=right;verticalAlign=bottom;" parent="LZOqlYVMBqQ8iP9V0Yqu-7" connectable="0" vertex="1">
          <mxGeometry x="1" relative="1" as="geometry" />
        </mxCell>
        <mxCell id="LZOqlYVMBqQ8iP9V0Yqu-12" value="ثبت نام" style="ellipse;whiteSpace=wrap;html=1;fillColor=#76608a;strokeColor=#432D57;fontStyle=1;fontColor=#ffffff;" parent="1" vertex="1">
          <mxGeometry x="370.62" y="431" width="103.75" height="63" as="geometry" />
        </mxCell>
        <mxCell id="VYPXpgVH3DA66YAYNXMS-15" value="" style="endArrow=none;html=1;edgeStyle=orthogonalEdgeStyle;exitX=1;exitY=0.3333333333333333;exitDx=0;exitDy=0;exitPerimeter=0;entryX=0;entryY=0.5;entryDx=0;entryDy=0;" parent="1" source="Ti_cdP-LwR2GLxK3Q5Qu-43" target="LZOqlYVMBqQ8iP9V0Yqu-12" edge="1">
          <mxGeometry relative="1" as="geometry">
            <mxPoint x="284" y="218" as="sourcePoint" />
            <mxPoint x="365.6199999999885" y="462.5" as="targetPoint" />
          </mxGeometry>
        </mxCell>
        <mxCell id="VYPXpgVH3DA66YAYNXMS-16" value="*" style="edgeLabel;resizable=0;html=1;align=left;verticalAlign=bottom;" parent="VYPXpgVH3DA66YAYNXMS-15" connectable="0" vertex="1">
          <mxGeometry x="-1" relative="1" as="geometry" />
        </mxCell>
        <mxCell id="VYPXpgVH3DA66YAYNXMS-17" value="*" style="edgeLabel;resizable=0;html=1;align=right;verticalAlign=bottom;" parent="VYPXpgVH3DA66YAYNXMS-15" connectable="0" vertex="1">
          <mxGeometry x="1" relative="1" as="geometry" />
        </mxCell>
        <mxCell id="Ropvw_bmy95mcoHRvxeS-1" value="مدیریت غذا" style="ellipse;whiteSpace=wrap;html=1;fillColor=#f8cecc;strokeColor=#b85450;gradientColor=#ea6b66;fontStyle=1" parent="1" vertex="1">
          <mxGeometry x="370.62" y="238" width="95" height="57" as="geometry" />
        </mxCell>
        <mxCell id="Ropvw_bmy95mcoHRvxeS-2" value="حذف رستوران" style="ellipse;whiteSpace=wrap;html=1;fillColor=#f8cecc;strokeColor=#b85450;gradientColor=#ea6b66;fontStyle=1" parent="1" vertex="1">
          <mxGeometry x="369.63" y="308" width="95" height="57" as="geometry" />
        </mxCell>
        <mxCell id="Ropvw_bmy95mcoHRvxeS-3" value="جستجو" style="ellipse;whiteSpace=wrap;html=1;fillColor=#76608a;strokeColor=#432D57;fontStyle=1;fontColor=#ffffff;" parent="1" vertex="1">
          <mxGeometry x="450" y="480" width="93.75" height="60" as="geometry" />
        </mxCell>
        <mxCell id="Ropvw_bmy95mcoHRvxeS-4" value="log out" style="ellipse;whiteSpace=wrap;html=1;fillColor=#ffcd28;strokeColor=#d79b00;gradientColor=#ffa500;fontStyle=1" parent="1" vertex="1">
          <mxGeometry x="561.5" y="365" width="95" height="57" as="geometry" />
        </mxCell>
        <mxCell id="Ropvw_bmy95mcoHRvxeS-6" value="سفارش غذا" style="ellipse;whiteSpace=wrap;html=1;fillColor=#76608a;strokeColor=#432D57;fontStyle=1;fontColor=#ffffff;" parent="1" vertex="1">
          <mxGeometry x="518.38" y="600" width="90" height="67" as="geometry" />
        </mxCell>
        <mxCell id="WrmBfSkYZn4rmx_h6ov5-1" value="" style="endArrow=none;html=1;edgeStyle=orthogonalEdgeStyle;entryX=1;entryY=0.5;entryDx=0;entryDy=0;exitX=0;exitY=1;exitDx=0;exitDy=0;exitPerimeter=0;" parent="1" source="rXxGUh9YkXs_mze31AUG-5" target="Ropvw_bmy95mcoHRvxeS-4" edge="1">
          <mxGeometry relative="1" as="geometry">
            <mxPoint x="940" y="208" as="sourcePoint" />
            <mxPoint x="819.0000000000009" y="206.5" as="targetPoint" />
            <Array as="points">
              <mxPoint x="930" y="394" />
            </Array>
          </mxGeometry>
        </mxCell>
        <mxCell id="WrmBfSkYZn4rmx_h6ov5-2" value="*" style="edgeLabel;resizable=0;html=1;align=left;verticalAlign=bottom;" parent="WrmBfSkYZn4rmx_h6ov5-1" connectable="0" vertex="1">
          <mxGeometry x="-1" relative="1" as="geometry" />
        </mxCell>
        <mxCell id="WrmBfSkYZn4rmx_h6ov5-3" value="*" style="edgeLabel;resizable=0;html=1;align=right;verticalAlign=bottom;" parent="WrmBfSkYZn4rmx_h6ov5-1" connectable="0" vertex="1">
          <mxGeometry x="1" relative="1" as="geometry" />
        </mxCell>
        <mxCell id="DWzLET5HcEAF2wmt5OuF-2" value="" style="endArrow=none;html=1;edgeStyle=orthogonalEdgeStyle;entryX=0.5;entryY=0;entryDx=0;entryDy=0;exitX=1;exitY=0.3333333333333333;exitDx=0;exitDy=0;exitPerimeter=0;fontStyle=4" parent="1" source="Ti_cdP-LwR2GLxK3Q5Qu-42" target="oFaBCXIpXnut_KhmdDa9-54" edge="1">
          <mxGeometry relative="1" as="geometry">
            <mxPoint x="468.0100000000001" y="148" as="sourcePoint" />
            <mxPoint x="928.38" y="228" as="targetPoint" />
            <Array as="points">
              <mxPoint x="274" y="155" />
              <mxPoint x="754" y="155" />
            </Array>
          </mxGeometry>
        </mxCell>
        <mxCell id="DWzLET5HcEAF2wmt5OuF-3" value="*" style="edgeLabel;resizable=0;html=1;align=left;verticalAlign=bottom;" parent="DWzLET5HcEAF2wmt5OuF-2" connectable="0" vertex="1">
          <mxGeometry x="-1" relative="1" as="geometry" />
        </mxCell>
        <mxCell id="DWzLET5HcEAF2wmt5OuF-4" value="*" style="edgeLabel;resizable=0;html=1;align=right;verticalAlign=bottom;" parent="DWzLET5HcEAF2wmt5OuF-2" connectable="0" vertex="1">
          <mxGeometry x="1" relative="1" as="geometry" />
        </mxCell>
      </root>
    </mxGraphModel>
  </diagram>
</mxfile>
